<svg class="main-svg" xmlns="http://www.w3.org/2000/svg" xmlns:xlink="http://www.w3.org/1999/xlink" width="700" height="400" style="" viewBox="0 0 700 400"><rect x="0" y="0" width="700" height="400" style="fill: rgb(253, 252, 251); fill-opacity: 1;"/><defs id="defs-786d65"><g class="clips"><clipPath id="clip786d65xyplot" class="plotclip"><rect width="600" height="280"/></clipPath><clipPath class="axesclip" id="clip786d65x"><rect x="60" y="0" width="600" height="400"/></clipPath><clipPath class="axesclip" id="clip786d65y"><rect x="0" y="60" width="700" height="280"/></clipPath><clipPath class="axesclip" id="clip786d65xy"><rect x="60" y="60" width="600" height="280"/></clipPath></g><g class="gradients"/><g class="patterns"/></defs><g class="bglayer"/><g class="layer-below"><g class="imagelayer"/><g class="shapelayer"/></g><g class="cartesianlayer"><g class="subplot xy"><g class="layer-subplot"><g class="shapelayer"/><g class="imagelayer"/></g><g class="minor-gridlayer"><g class="x"/><g class="y"/></g><g class="gridlayer"><g class="x"><path class="xgrid crisp" transform="translate(170.2,0)" d="M0,60v280" style="stroke: rgb(229, 226, 217); stroke-opacity: 1; stroke-width: 1px;"/><path class="xgrid crisp" transform="translate(292.65,0)" d="M0,60v280" style="stroke: rgb(229, 226, 217); stroke-opacity: 1; stroke-width: 1px;"/><path class="xgrid crisp" transform="translate(415.1,0)" d="M0,60v280" style="stroke: rgb(229, 226, 217); stroke-opacity: 1; stroke-width: 1px;"/><path class="xgrid crisp" transform="translate(537.55,0)" d="M0,60v280" style="stroke: rgb(229, 226, 217); stroke-opacity: 1; stroke-width: 1px;"/></g><g class="y"><path class="ygrid crisp" transform="translate(0,286.66999999999996)" d="M60,0h600" style="stroke: rgb(229, 226, 217); stroke-opacity: 1; stroke-width: 1px;"/><path class="ygrid crisp" transform="translate(0,233.33)" d="M60,0h600" style="stroke: rgb(229, 226, 217); stroke-opacity: 1; stroke-width: 1px;"/><path class="ygrid crisp" transform="translate(0,180)" d="M60,0h600" style="stroke: rgb(229, 226, 217); stroke-opacity: 1; stroke-width: 1px;"/><path class="ygrid crisp" transform="translate(0,126.67)" d="M60,0h600" style="stroke: rgb(229, 226, 217); stroke-opacity: 1; stroke-width: 1px;"/><path class="ygrid crisp" transform="translate(0,73.33)" d="M60,0h600" style="stroke: rgb(229, 226, 217); stroke-opacity: 1; stroke-width: 1px;"/></g></g><g class="zerolinelayer"><path class="yzl zl crisp" transform="translate(0,340)" d="M60,0h600" style="stroke: rgb(255, 255, 255); stroke-opacity: 1; stroke-width: 2px;"/></g><g class="layer-between"><g class="shapelayer"/><g class="imagelayer"/></g><path class="xlines-below"/><path class="ylines-below"/><g class="overlines-below"/><g class="xaxislayer-below"/><g class="yaxislayer-below"/><g class="overaxes-below"/><g class="overplot"><g class="xy" transform="translate(60,60)" clip-path="url(#clip786d65xyplot)"><g class="scatterlayer mlayer"><g class="trace scatter trace761121" style="stroke-miterlimit: 2; opacity: 1;"><g class="fills"/><g class="errorbars"/><g class="lines"><path class="js-line" d="M0,33.56L6.12,50.94L12.24,66.03L24.49,90.93L30.61,101.33L42.86,119.04L48.98,126.63L61.22,139.87L67.35,145.66L79.59,155.92L85.71,160.49L104.08,172.37L110.2,175.82L128.57,184.96L134.69,187.66L159.18,197.09L165.31,199.15L189.8,206.47L195.92,208.1L226.53,215.26L232.65,216.53L269.39,223.19L275.51,224.16L318.37,230.16L324.49,230.91L379.59,236.79L385.71,237.36L453.06,242.74L459.18,243.16L544.9,248.21L551.02,248.52L600,250.78" style="vector-effect: none; fill: none; stroke: rgb(58, 77, 57); stroke-opacity: 1; stroke-width: 3px; opacity: 1;"/></g><g class="points"/><g class="text"/></g><g class="trace scatter trace04b6e2" style="stroke-miterlimit: 2; opacity: 1;"><g class="fills"/><g class="errorbars"/><g class="lines"><path class="js-line" d="M0,146.67L6.12,191.11L12.24,213.33L18.37,226.67L24.49,235.56L30.61,241.9L36.73,246.67L48.98,253.33L55.1,255.76L67.35,259.49L73.47,260.95L91.84,264.31L97.96,265.19L128.57,268.41L134.69,268.89L183.67,271.67L189.8,271.92L263.27,274.07L269.39,274.2L379.59,275.83L385.71,275.9L600,277.33" style="vector-effect: none; fill: none; stroke: rgb(155, 77, 77); stroke-opacity: 1; stroke-dasharray: 9px, 9px; stroke-width: 2px; opacity: 1;"/></g><g class="points"/><g class="text"/></g></g></g></g><g class="zerolinelayer-above"/><path class="xlines-above crisp" d="M0,0" style="fill: none;"/><path class="ylines-above crisp" d="M0,0" style="fill: none;"/><g class="overlines-above"/><g class="xaxislayer-above"><g class="xtick"><text text-anchor="middle" x="0" y="353" transform="translate(170.2,0)" style="font-family: 'Open Sans', verdana, arial, sans-serif; font-size: 12px; fill: rgb(26, 26, 26); fill-opacity: 1; white-space: pre;">20</text></g><g class="xtick"><text text-anchor="middle" x="0" y="353" style="font-family: 'Open Sans', verdana, arial, sans-serif; font-size: 12px; fill: rgb(26, 26, 26); fill-opacity: 1; white-space: pre;" transform="translate(292.65,0)">40</text></g><g class="xtick"><text text-anchor="middle" x="0" y="353" style="font-family: 'Open Sans', verdana, arial, sans-serif; font-size: 12px; fill: rgb(26, 26, 26); fill-opacity: 1; white-space: pre;" transform="translate(415.1,0)">60</text></g><g class="xtick"><text text-anchor="middle" x="0" y="353" style="font-family: 'Open Sans', verdana, arial, sans-serif; font-size: 12px; fill: rgb(26, 26, 26); fill-opacity: 1; white-space: pre;" transform="translate(537.55,0)">80</text></g><g class="xtick"><text text-anchor="middle" x="0" y="353" style="font-family: 'Open Sans', verdana, arial, sans-serif; font-size: 12px; fill: rgb(26, 26, 26); fill-opacity: 1; white-space: pre;" transform="translate(660,0)">100</text></g></g><g class="yaxislayer-above"><g class="ytick"><text text-anchor="end" x="59" y="4.199999999999999" transform="translate(0,340)" style="font-family: 'Open Sans', verdana, arial, sans-serif; font-size: 12px; fill: rgb(26, 26, 26); fill-opacity: 1; white-space: pre;">0</text></g><g class="ytick"><text text-anchor="end" x="59" y="4.199999999999999" style="font-family: 'Open Sans', verdana, arial, sans-serif; font-size: 12px; fill: rgb(26, 26, 26); fill-opacity: 1; white-space: pre;" transform="translate(0,286.66999999999996)">0.2</text></g><g class="ytick"><text text-anchor="end" x="59" y="4.199999999999999" style="font-family: 'Open Sans', verdana, arial, sans-serif; font-size: 12px; fill: rgb(26, 26, 26); fill-opacity: 1; white-space: pre;" transform="translate(0,233.33)">0.4</text></g><g class="ytick"><text text-anchor="end" x="59" y="4.199999999999999" style="font-family: 'Open Sans', verdana, arial, sans-serif; font-size: 12px; fill: rgb(26, 26, 26); fill-opacity: 1; white-space: pre;" transform="translate(0,180)">0.6</text></g><g class="ytick"><text text-anchor="end" x="59" y="4.199999999999999" style="font-family: 'Open Sans', verdana, arial, sans-serif; font-size: 12px; fill: rgb(26, 26, 26); fill-opacity: 1; white-space: pre;" transform="translate(0,126.67)">0.8</text></g><g class="ytick"><text text-anchor="end" x="59" y="4.199999999999999" style="font-family: 'Open Sans', verdana, arial, sans-serif; font-size: 12px; fill: rgb(26, 26, 26); fill-opacity: 1; white-space: pre;" transform="translate(0,73.33)">1</text></g></g><g class="overaxes-above"/></g></g><g class="polarlayer"/><g class="smithlayer"/><g class="ternarylayer"/><g class="geolayer"/><g class="funnelarealayer"/><g class="pielayer"/><g class="iciclelayer"/><g class="treemaplayer"/><g class="sunburstlayer"/><g class="glimages"/><defs id="topdefs-786d65"><g class="clips"/><clipPath id="legend786d65"><rect width="186" height="48" x="0" y="0"/></clipPath></defs><g class="layer-above"><g class="imagelayer"/><g class="shapelayer"/></g><g class="infolayer"><g class="legend" pointer-events="all" transform="translate(480,74.00000000000001)"><rect class="bg" shape-rendering="crispEdges" style="stroke: rgb(68, 68, 68); stroke-opacity: 1; fill: rgb(253, 252, 251); fill-opacity: 0.9; stroke-width: 0px;" width="186" height="48" x="0" y="0"/><g class="scrollbox" transform="" clip-path="url(#legend786d65)"><g class="groups"><g class="traces" transform="translate(0,14.5)" style="opacity: 1;"><text class="legendtext" text-anchor="start" x="40" y="4.680000000000001" style="font-family: 'Open Sans', verdana, arial, sans-serif; font-size: 12px; fill: rgb(26, 26, 26); fill-opacity: 1; white-space: pre;">Target attention weight</text><g class="layers" style="opacity: 1;"><g class="legendfill"/><g class="legendlines"><path class="js-line" d="M5,0h30" style="fill: none; stroke: rgb(58, 77, 57); stroke-opacity: 1; stroke-width: 3px;"/></g><g class="legendsymbols"><g class="legendpoints"/></g></g><rect class="legendtoggle" x="0" y="-9.5" width="180.484375" height="19" style="fill: rgb(0, 0, 0); fill-opacity: 0;"/></g><g class="traces" transform="translate(0,33.5)" style="opacity: 1;"><text class="legendtext" text-anchor="start" x="40" y="4.680000000000001" style="font-family: 'Open Sans', verdana, arial, sans-serif; font-size: 12px; fill: rgb(26, 26, 26); fill-opacity: 1; white-space: pre;">Uniform (1/n)</text><g class="layers" style="opacity: 1;"><g class="legendfill"/><g class="legendlines"><path class="js-line" d="M5,0h30" style="fill: none; stroke: rgb(155, 77, 77); stroke-opacity: 1; stroke-dasharray: 9px, 9px; stroke-width: 2px;"/></g><g class="legendsymbols"><g class="legendpoints"/></g></g><rect class="legendtoggle" x="0" y="-9.5" width="180.484375" height="19" style="fill: rgb(0, 0, 0); fill-opacity: 0;"/></g></g></g><rect class="scrollbar" rx="20" ry="3" width="0" height="0" style="fill: rgb(128, 139, 164); fill-opacity: 1;" x="0" y="0"/></g><g class="g-gtitle"><text class="gtitle" x="350" y="30" text-anchor="middle" dy="0em" style="opacity: 1; font-family: 'Open Sans', verdana, arial, sans-serif; font-size: 13px; fill: rgb(26, 26, 26); fill-opacity: 1; white-space: pre;">Attention Dispersion: target similarity = 3.0, distractors = 0.5, τ = 1.0</text></g><g class="g-xtitle"><text class="xtitle" x="360" y="380.3" text-anchor="middle" style="opacity: 1; font-family: 'Open Sans', verdana, arial, sans-serif; font-size: 14px; fill: rgb(26, 26, 26); fill-opacity: 1; white-space: pre;">Number of keys (n)</text></g><g class="g-ytitle"><text class="ytitle" transform="rotate(-90,19.975,200)" x="19.975" y="200" text-anchor="middle" style="opacity: 1; font-family: 'Open Sans', verdana, arial, sans-serif; font-size: 14px; fill: rgb(26, 26, 26); fill-opacity: 1; white-space: pre;">Attention weight on target key</text></g><g class="annotation" data-index="0" style="opacity: 1;"><g class="annotation-text-g" transform="rotate(0,577.55,264.37)"><g class="cursor-pointer" transform="translate(539,243)"><rect class="bg" x="0.5" y="0.5" width="77" height="41" style="stroke-width: 1px; stroke: rgb(0, 0, 0); stroke-opacity: 0; fill: rgb(0, 0, 0); fill-opacity: 0;"/><text class="annotation-text" text-anchor="middle" x="39.125" y="12" style="font-family: 'Open Sans', verdana, arial, sans-serif; font-size: 10px; fill: rgb(26, 26, 26); fill-opacity: 1; white-space: pre;"><tspan class="line" dy="0em" x="39.125" y="12">Target weight</tspan><tspan class="line" dy="1.3em" x="39.125" y="12">decays despite</tspan><tspan class="line" dy="2.6em" x="39.125" y="12">high similarity</tspan></text></g></g><g class="annotation-arrow-g" style="opacity: 1;"><path d="M557.05,284.87L537.55,304.37" style="stroke-width: 1px; stroke: rgb(42, 63, 95); stroke-opacity: 1; stroke-dasharray: 0px, 0px, 26.2772px, 27.5772px;"/><path d="M-3.7,-2.5V2.5L1.3,0Z" transform="translate(538.46923828125,303.45074462890625)rotate(135.0123615487862)" style="fill: rgb(42, 63, 95); stroke-width: 0;"/></g></g></g></svg>